<svg xmlns="http://www.w3.org/2000/svg" viewBox="0 0 512 512">
<circle cx="256" cy="256" r="256" fill="#009869"/>
<!-- Dumbbell (light mint, recedes) -->
<g transform="translate(256,256) scale(0.024,-0.024) translate(-10240,-9260)" fill="#b8d4bb" stroke="none">
<path d="M5390 8165 c0 -3099 2 -3466 15 -3471 18 -7 194 47 275 85 278 128
508 387 605 684 62 190 59 148 65 1047 l5 825 175 7 c273 10 8189 8 8216 -2
l23 -9 3 -813 c4 -867 3 -843 56 -1013 89 -287 273 -530 505 -670 89 -53 328
-145 378 -145 19 0 19 91 17 3468 l-3 3467 -23 3 c-38 6 -223 -61 -320 -115
-244 -136 -447 -373 -533 -623 -39 -112 -44 -132 -69 -285 -5 -27 -9 -404 -9
-837 -1 -740 -2 -787 -18 -792 -26 -8 -8379 1 -8392 8 -8 5 -11 237 -11 799 0
730 -2 799 -19 887 -39 202 -118 390 -221 530 -88 119 -232 242 -370 317 -84
46 -278 113 -326 113 l-24 0 0 -3465z"/>
<path d="M3520 10931 c-182 -6 -186 -7 -235 -35 -63 -37 -100 -76 -125 -133
-20 -45 -20 -67 -20 -2574 0 -2365 1 -2531 17 -2566 31 -69 80 -120 146 -153
l63 -31 198 0 c109 -1 202 3 207 8 5 5 8 1126 7 2749 l-3 2739 -35 1 c-19 0
-118 -2 -220 -5z"/>
<path d="M4345 11653 c-119 -26 -225 -118 -280 -243 -20 -44 -20 -78 -20
-3250 l0 -3205 34 -68 c40 -80 110 -148 191 -186 l55 -26 365 0 365 0 3 3493
2 3492 -347 -1 c-192 -1 -357 -3 -368 -6z"/>
<path d="M16067 11654 c-4 -4 -7 -1577 -7 -3496 l0 -3488 357 0 c310 0 363 2
403 17 95 35 188 120 231 209 l24 49 0 3215 0 3215 -30 59 c-37 76 -117 156
-192 192 l-58 29 -360 3 c-198 2 -364 0 -368 -4z"/>
<path d="M17480 10931 l-135 -6 0 -557 c0 -307 1 -1542 3 -2744 l2 -2186 218
4 c215 3 217 3 263 30 53 31 100 82 129 138 20 39 20 56 20 2556 0 2782 5
2577 -63 2666 -18 22 -54 54 -82 69 -59 33 -139 40 -355 30z"/>
<path d="M2625 10233 c-24 -6 -83 -49 -107 -78 -36 -43 -38 -93 -38 -711 1
-332 -2 -609 -5 -614 -4 -6 -123 -10 -311 -10 l-304 0 2 -687 3 -688 294 -3
c183 -1 299 -6 307 -13 9 -8 11 -94 7 -387 -2 -207 -1 -459 4 -558 8 -174 10
-183 36 -223 15 -22 46 -53 69 -68 38 -26 50 -28 160 -32 65 -2 129 0 143 3
l25 6 -2 2033 -3 2032 -130 1 c-71 1 -139 0 -150 -3z"/>
<path d="M18210 8200 l0 -2030 144 0 c132 0 146 2 176 23 50 34 91 91 101 139
4 24 8 277 9 564 0 391 3 523 12 532 9 9 92 12 310 12 l298 0 -2 688 -3 687
-300 3 c-189 1 -303 6 -310 13 -7 7 -10 217 -10 632 0 689 5 636 -64 710 -44
48 -80 57 -227 57 l-134 0 0 -2030z"/>
</g>
<!-- M letter form (pure white, pops) -->
<g transform="translate(256,256) scale(0.024,-0.024) translate(-10240,-9260)" fill="#ffffff" stroke="none">
<path d="M5442 14335 c-4 -5 -7 -55 -7 -110 0 -55 -1 -581 -3 -1170 -1 -588
-2 -1076 -2 -1082 0 -7 9 -13 21 -13 41 0 281 -71 337 -99 9 -5 43 -21 75 -36
246 -117 522 -396 649 -655 46 -95 88 -191 88 -203 0 -6 6 -29 14 -52 19 -54
31 -104 50 -200 13 -66 17 -197 22 -740 3 -363 7 -662 10 -664 7 -7 1474 -7
1485 0 5 3 10 157 11 344 2 250 6 339 15 342 7 3 31 -35 57 -86 25 -49 60
-118 79 -153 87 -159 119 -221 172 -323 31 -60 61 -115 67 -123 10 -11 325
-13 1980 -9 1082 2 1970 6 1972 8 4 5 50 90 121 224 32 61 71 133 87 160 15
28 57 110 94 183 36 72 69 132 74 132 5 0 12 -5 15 -11 4 -6 6 -163 6 -350
l-2 -339 755 0 755 0 3 678 c3 502 7 693 17 737 53 245 122 420 233 585 67 99
184 235 255 297 62 53 198 155 223 166 8 4 31 17 50 29 61 37 143 75 210 98
75 26 213 60 240 60 10 0 20 4 22 10 4 14 0 2361 -4 2366 -5 4 -284 5 -1918 4
l-1046 0 -42 -82 c-175 -342 -327 -633 -362 -693 -23 -40 -127 -240 -267 -515
-64 -124 -128 -247 -143 -275 -15 -27 -71 -135 -125 -240 -54 -104 -117 -226
-140 -270 -47 -89 -139 -264 -237 -455 -36 -69 -90 -172 -120 -230 -31 -58
-92 -175 -135 -260 -44 -85 -102 -198 -130 -250 -76 -144 -258 -494 -403 -775
-29 -56 -52 -90 -62 -90 -11 0 -52 70 -123 210 -59 116 -122 237 -140 270 -18
33 -90 173 -160 310 -70 138 -144 282 -165 320 -21 39 -66 124 -100 190 -35
66 -75 143 -90 170 -31 57 -119 226 -240 460 -45 88 -95 183 -110 210 -15 28
-64 120 -108 205 -44 85 -99 191 -122 235 -45 84 -147 281 -312 605 -55 107
-113 218 -128 245 -15 28 -100 194 -190 370 -89 176 -165 323 -169 328 -11 12
-2952 14 -2959 2z"/>
<path d="M9710 7007 c0 -7 24 -60 54 -117 84 -165 210 -408 251 -485 20 -38
69 -131 107 -205 144 -277 181 -345 194 -360 11 -14 48 -16 246 -15 l232 0 27
40 c15 22 62 108 104 190 43 83 93 179 113 215 37 68 122 232 279 537 51 100
93 189 93 197 0 14 -85 16 -850 16 -689 0 -850 -2 -850 -13z"/>
<path d="M12934 7011 c-2 -2 -4 -622 -4 -1376 l0 -1372 93 -5 c50 -3 670 -4
1377 -1 l1285 5 3 48 c3 47 2 50 -25 55 -169 33 -209 46 -348 111 -225 104
-485 325 -615 522 -121 184 -193 368 -243 627 -20 105 -21 138 -22 740 0 347
-4 636 -8 643 -7 10 -151 12 -749 10 -407 -2 -741 -5 -744 -7z"/>
<path d="M6684 7011 c-2 -2 -4 -295 -4 -651 0 -600 -1 -654 -20 -751 -32 -173
-68 -283 -141 -435 -105 -218 -248 -392 -438 -535 -184 -138 -380 -225 -618
-275 -20 -4 -23 -11 -23 -53 l0 -48 373 -6 c204 -3 823 -2 1375 1 l1003 7 -1
1370 c0 1071 -3 1371 -13 1377 -12 8 -1485 7 -1493 -1z"/>
</g>
</svg>
